%TF.GenerationSoftware,KiCad,Pcbnew,9.0.4*%
%TF.CreationDate,2025-09-29T17:30:01-04:00*%
%TF.ProjectId,power-board,706f7765-722d-4626-9f61-72642e6b6963,rev?*%
%TF.SameCoordinates,Original*%
%TF.FileFunction,Soldermask,Top*%
%TF.FilePolarity,Negative*%
%FSLAX46Y46*%
G04 Gerber Fmt 4.6, Leading zero omitted, Abs format (unit mm)*
G04 Created by KiCad (PCBNEW 9.0.4) date 2025-09-29 17:30:01*
%MOMM*%
%LPD*%
G01*
G04 APERTURE LIST*
G04 Aperture macros list*
%AMRoundRect*
0 Rectangle with rounded corners*
0 $1 Rounding radius*
0 $2 $3 $4 $5 $6 $7 $8 $9 X,Y pos of 4 corners*
0 Add a 4 corners polygon primitive as box body*
4,1,4,$2,$3,$4,$5,$6,$7,$8,$9,$2,$3,0*
0 Add four circle primitives for the rounded corners*
1,1,$1+$1,$2,$3*
1,1,$1+$1,$4,$5*
1,1,$1+$1,$6,$7*
1,1,$1+$1,$8,$9*
0 Add four rect primitives between the rounded corners*
20,1,$1+$1,$2,$3,$4,$5,0*
20,1,$1+$1,$4,$5,$6,$7,0*
20,1,$1+$1,$6,$7,$8,$9,0*
20,1,$1+$1,$8,$9,$2,$3,0*%
G04 Aperture macros list end*
%ADD10RoundRect,1.200000X-2.800000X-3.800000X2.800000X-3.800000X2.800000X3.800000X-2.800000X3.800000X0*%
%ADD11C,0.600000*%
%ADD12RoundRect,0.900000X3.100000X-2.100000X3.100000X2.100000X-3.100000X2.100000X-3.100000X-2.100000X0*%
%ADD13RoundRect,0.900000X-2.100000X-3.100000X2.100000X-3.100000X2.100000X3.100000X-2.100000X3.100000X0*%
%ADD14RoundRect,0.250000X-0.550000X-0.550000X0.550000X-0.550000X0.550000X0.550000X-0.550000X0.550000X0*%
%ADD15C,5.500000*%
%ADD16C,3.600000*%
%ADD17RoundRect,0.900000X-3.100000X2.100000X-3.100000X-2.100000X3.100000X-2.100000X3.100000X2.100000X0*%
%ADD18C,1.700000*%
%ADD19R,1.700000X1.700000*%
G04 APERTURE END LIST*
D10*
%TO.C,J9*%
X78000000Y-88000000D03*
X92000000Y-88000000D03*
D11*
X75000000Y-84000000D03*
X75000000Y-86000000D03*
X75000000Y-88000000D03*
X75000000Y-90000000D03*
X75000000Y-92000000D03*
X77000000Y-84000000D03*
X77000000Y-86000000D03*
X77000000Y-88000000D03*
X77000000Y-90000000D03*
X77000000Y-92000000D03*
X79000000Y-84000000D03*
X79000000Y-86000000D03*
X79000000Y-88000000D03*
X79000000Y-90000000D03*
X79000000Y-92000000D03*
X81000000Y-84000000D03*
X81000000Y-86000000D03*
X81000000Y-88000000D03*
X81000000Y-90000000D03*
X81000000Y-92000000D03*
%TD*%
D12*
%TO.C,J8*%
X99000000Y-65000000D03*
%TD*%
%TO.C,J6*%
X71000000Y-73000000D03*
%TD*%
D13*
%TO.C,J4*%
X90000000Y-51000000D03*
%TD*%
D12*
%TO.C,J2*%
X71000000Y-57000000D03*
%TD*%
D14*
%TO.C,J11*%
X86500000Y-60600000D03*
%TD*%
D15*
%TO.C,H4*%
X100000000Y-80000000D03*
D16*
X100000000Y-80000000D03*
%TD*%
D14*
%TO.C,J12*%
X89500000Y-60600000D03*
%TD*%
D11*
%TO.C,J5*%
X68000000Y-67000000D03*
X69500000Y-67000000D03*
X71000000Y-67000000D03*
X72500000Y-67000000D03*
X74000000Y-67000000D03*
X68000000Y-65000000D03*
X69500000Y-65000000D03*
X71000000Y-65000000D03*
X72500000Y-65000000D03*
X74000000Y-65000000D03*
X68000000Y-63000000D03*
X69500000Y-63000000D03*
X71000000Y-63000000D03*
X72500000Y-63000000D03*
X74000000Y-63000000D03*
D17*
X71000000Y-65000000D03*
%TD*%
D11*
%TO.C,J7*%
X102000000Y-71000000D03*
X100500000Y-71000000D03*
X99000000Y-71000000D03*
X97500000Y-71000000D03*
X96000000Y-71000000D03*
X102000000Y-73000000D03*
X100500000Y-73000000D03*
X99000000Y-73000000D03*
X97500000Y-73000000D03*
X96000000Y-73000000D03*
X102000000Y-75000000D03*
X100500000Y-75000000D03*
X99000000Y-75000000D03*
X97500000Y-75000000D03*
X96000000Y-75000000D03*
D12*
X99000000Y-73000000D03*
%TD*%
D11*
%TO.C,J3*%
X102000000Y-55000000D03*
X100500000Y-55000000D03*
X99000000Y-55000000D03*
X97500000Y-55000000D03*
X96000000Y-55000000D03*
X102000000Y-57000000D03*
X100500000Y-57000000D03*
X99000000Y-57000000D03*
X97500000Y-57000000D03*
X96000000Y-57000000D03*
X102000000Y-59000000D03*
X100500000Y-59000000D03*
X99000000Y-59000000D03*
X97500000Y-59000000D03*
X96000000Y-59000000D03*
D12*
X99000000Y-57000000D03*
%TD*%
D15*
%TO.C,H1*%
X70000000Y-50000000D03*
D16*
X70000000Y-50000000D03*
%TD*%
D18*
%TO.C,P1*%
X89080000Y-63975000D03*
X86540000Y-63975000D03*
X84000000Y-63975000D03*
D19*
X81460000Y-63975000D03*
%TD*%
D13*
%TO.C,J1*%
X80000000Y-51000000D03*
D11*
X78000000Y-48000000D03*
X78000000Y-49500000D03*
X78000000Y-51000000D03*
X78000000Y-52500000D03*
X78000000Y-54000000D03*
X80000000Y-48000000D03*
X80000000Y-49500000D03*
X80000000Y-51000000D03*
X80000000Y-52500000D03*
X80000000Y-54000000D03*
X82000000Y-48000000D03*
X82000000Y-49500000D03*
X82000000Y-51000000D03*
X82000000Y-52500000D03*
X82000000Y-54000000D03*
%TD*%
D15*
%TO.C,H2*%
X100000000Y-50000000D03*
D16*
X100000000Y-50000000D03*
%TD*%
D14*
%TO.C,J10*%
X81300000Y-60600000D03*
%TD*%
D15*
%TO.C,H3*%
X70000000Y-80000000D03*
D16*
X70000000Y-80000000D03*
%TD*%
M02*
