M48
; DRILL file {KiCad 9.0.4} date 2025-09-29T17:33:03-0400
; FORMAT={-:-/ absolute / metric / decimal}
; #@! TF.CreationDate,2025-09-29T17:33:03-04:00
; #@! TF.GenerationSoftware,Kicad,Pcbnew,9.0.4
; #@! TF.FileFunction,Plated,1,2,PTH
FMAT,2
METRIC
; #@! TA.AperFunction,Plated,PTH,ComponentDrill
T1C0.300
; #@! TA.AperFunction,Plated,PTH,ComponentDrill
T2C0.600
; #@! TA.AperFunction,Plated,PTH,ComponentDrill
T3C1.000
; #@! TA.AperFunction,Plated,PTH,ComponentDrill
T4C3.200
%
G90
G05
T1
X68.0Y-63.0
X68.0Y-65.0
X68.0Y-67.0
X69.5Y-63.0
X69.5Y-65.0
X69.5Y-67.0
X71.0Y-63.0
X71.0Y-65.0
X71.0Y-67.0
X72.5Y-63.0
X72.5Y-65.0
X72.5Y-67.0
X74.0Y-63.0
X74.0Y-65.0
X74.0Y-67.0
X75.0Y-84.0
X75.0Y-86.0
X75.0Y-88.0
X75.0Y-90.0
X75.0Y-92.0
X77.0Y-84.0
X77.0Y-86.0
X77.0Y-88.0
X77.0Y-90.0
X77.0Y-92.0
X78.0Y-48.0
X78.0Y-49.5
X78.0Y-51.0
X78.0Y-52.5
X78.0Y-54.0
X79.0Y-84.0
X79.0Y-86.0
X79.0Y-88.0
X79.0Y-90.0
X79.0Y-92.0
X80.0Y-48.0
X80.0Y-49.5
X80.0Y-51.0
X80.0Y-52.5
X80.0Y-54.0
X81.0Y-84.0
X81.0Y-86.0
X81.0Y-88.0
X81.0Y-90.0
X81.0Y-92.0
X82.0Y-48.0
X82.0Y-49.5
X82.0Y-51.0
X82.0Y-52.5
X82.0Y-54.0
X96.0Y-55.0
X96.0Y-57.0
X96.0Y-59.0
X96.0Y-71.0
X96.0Y-73.0
X96.0Y-75.0
X97.5Y-55.0
X97.5Y-57.0
X97.5Y-59.0
X97.5Y-71.0
X97.5Y-73.0
X97.5Y-75.0
X99.0Y-55.0
X99.0Y-57.0
X99.0Y-59.0
X99.0Y-71.0
X99.0Y-73.0
X99.0Y-75.0
X100.5Y-55.0
X100.5Y-57.0
X100.5Y-59.0
X100.5Y-71.0
X100.5Y-73.0
X100.5Y-75.0
X102.0Y-55.0
X102.0Y-57.0
X102.0Y-59.0
X102.0Y-71.0
X102.0Y-73.0
X102.0Y-75.0
T2
X81.3Y-60.6
X86.5Y-60.6
X89.5Y-60.6
T3
X81.46Y-63.975
X84.0Y-63.975
X86.54Y-63.975
X89.08Y-63.975
T4
X70.0Y-50.0
X70.0Y-80.0
X100.0Y-50.0
X100.0Y-80.0
M30
